<svg width="100%" height="100%" id="svg" viewBox="0 0 1440 500" xmlns="http://www.w3.org/2000/svg" class="transition duration-300 ease-in-out delay-150"><path d="M 0,500 C 0,500 0,100 0,100 C 147.89285714285717,118 295.78571428571433,136 419,137 C 542.2142857142857,138 640.7499999999999,122 736,117 C 831.2500000000001,112 923.2142857142858,118 1040,117 C 1156.7857142857142,116 1298.392857142857,108 1440,100 C 1440,100 1440,500 1440,500 Z" stroke="none" stroke-width="0" fill="#8ed1fc44" class="transition-all duration-300 ease-in-out delay-150 path-0"></path><path d="M 0,500 C 0,500 0,200 0,200 C 104.39285714285714,218.67857142857144 208.78571428571428,237.35714285714286 331,236 C 453.2142857142857,234.64285714285714 593.2499999999999,213.25000000000003 728,200 C 862.7500000000001,186.74999999999997 992.2142857142858,181.64285714285714 1110,183 C 1227.7857142857142,184.35714285714286 1333.892857142857,192.17857142857144 1440,200 C 1440,200 1440,500 1440,500 Z" stroke="none" stroke-width="0" fill="#8ed1fc66" class="transition-all duration-300 ease-in-out delay-150 path-1"></path><path d="M 0,500 C 0,500 0,300 0,300 C 109.28571428571428,295.17857142857144 218.57142857142856,290.35714285714283 337,298 C 455.42857142857144,305.64285714285717 583.0000000000001,325.75 714,325 C 844.9999999999999,324.25 979.4285714285713,302.64285714285717 1101,295 C 1222.5714285714287,287.35714285714283 1331.2857142857142,293.67857142857144 1440,300 C 1440,300 1440,500 1440,500 Z" stroke="none" stroke-width="0" fill="#8ed1fc88" class="transition-all duration-300 ease-in-out delay-150 path-2"></path><path d="M 0,500 C 0,500 0,400 0,400 C 97.14285714285714,404.4642857142857 194.28571428571428,408.92857142857144 320,411 C 445.7142857142857,413.07142857142856 599.9999999999999,412.75 734,405 C 868.0000000000001,397.25 981.7142857142858,382.07142857142856 1096,380 C 1210.2857142857142,377.92857142857144 1325.142857142857,388.9642857142857 1440,400 C 1440,400 1440,500 1440,500 Z" stroke="none" stroke-width="0" fill="#8ed1fcff" class="transition-all duration-300 ease-in-out delay-150 path-3"></path></svg>